<?xml version="1.0" encoding="UTF-8" standalone="no"?>
<!DOCTYPE svg PUBLIC "-//W3C//DTD SVG 1.1//EN"
 "http://www.w3.org/Graphics/SVG/1.1/DTD/svg11.dtd">
<!-- Generated by graphviz version 2.43.0 (0)
 -->
<!-- Title: %3 Pages: 1 -->
<svg width="1852pt" height="570pt"
 viewBox="0.00 0.00 1852.15 569.58" xmlns="http://www.w3.org/2000/svg" xmlns:xlink="http://www.w3.org/1999/xlink">
<g id="graph0" class="graph" transform="scale(1 1) rotate(0) translate(4 565.58)">
<title>%3</title>
<polygon fill="white" stroke="transparent" points="-4,4 -4,-565.58 1848.15,-565.58 1848.15,4 -4,4"/>
<!-- node_0_0 -->
<g id="node1" class="node">
<title>node_0_0</title>
<ellipse fill="none" stroke="black" cx="50.91" cy="-48.79" rx="50.82" ry="48.58"/>
<text text-anchor="middle" x="50.91" y="-68.09" font-family="Times,serif" font-size="14.00">BOS</text>
<text text-anchor="middle" x="50.91" y="-37.09" font-family="Times,serif" font-size="14.00">BOS/EOS</text>
<text text-anchor="middle" x="50.91" y="-22.09" font-family="Times,serif" font-size="14.00">0</text>
</g>
<!-- node_0_1 -->
<g id="node2" class="node">
<title>node_0_1</title>
<ellipse fill="none" stroke="black" cx="298.76" cy="-48.79" rx="132.87" ry="48.17"/>
<text text-anchor="middle" x="298.76" y="-67.59" font-family="Times,serif" font-size="14.00">東京</text>
<text text-anchor="middle" x="298.76" y="-52.59" font-family="Times,serif" font-size="14.00">トーキョー</text>
<text text-anchor="middle" x="298.76" y="-37.59" font-family="Times,serif" font-size="14.00">名詞,固有名詞,地名,一般,固</text>
<text text-anchor="middle" x="298.76" y="-22.59" font-family="Times,serif" font-size="14.00">&#45;783</text>
</g>
<!-- node_0_0&#45;&gt;node_0_1 -->
<g id="edge1" class="edge">
<title>node_0_0&#45;&gt;node_0_1</title>
<path fill="none" stroke="black" d="M101.96,-48.79C117.92,-48.79 136.45,-48.79 155.61,-48.79"/>
<polygon fill="black" stroke="black" points="155.68,-52.29 165.68,-48.79 155.68,-45.29 155.68,-52.29"/>
<text text-anchor="middle" x="133.82" y="-52.59" font-family="Times,serif" font-size="14.00">6610</text>
</g>
<!-- node_0_2 -->
<g id="node3" class="node">
<title>node_0_2</title>
<ellipse fill="none" stroke="black" cx="606" cy="-48.79" rx="110.12" ry="48.17"/>
<text text-anchor="middle" x="606" y="-67.59" font-family="Times,serif" font-size="14.00">都</text>
<text text-anchor="middle" x="606" y="-52.59" font-family="Times,serif" font-size="14.00">ト</text>
<text text-anchor="middle" x="606" y="-37.59" font-family="Times,serif" font-size="14.00">名詞,普通名詞,一般,漢</text>
<text text-anchor="middle" x="606" y="-22.59" font-family="Times,serif" font-size="14.00">1012</text>
</g>
<!-- node_0_1&#45;&gt;node_0_2 -->
<g id="edge2" class="edge">
<title>node_0_1&#45;&gt;node_0_2</title>
<path fill="none" stroke="black" d="M431.87,-48.79C449.65,-48.79 467.81,-48.79 485.35,-48.79"/>
<polygon fill="black" stroke="black" points="485.61,-52.29 495.61,-48.79 485.61,-45.29 485.61,-52.29"/>
<text text-anchor="middle" x="463.7" y="-52.59" font-family="Times,serif" font-size="14.00">1868</text>
</g>
<!-- node_0_3 -->
<g id="node4" class="node">
<title>node_0_3</title>
<ellipse fill="none" stroke="black" cx="925.03" cy="-48.79" rx="110.12" ry="48.17"/>
<text text-anchor="middle" x="925.03" y="-67.59" font-family="Times,serif" font-size="14.00">内部</text>
<text text-anchor="middle" x="925.03" y="-52.59" font-family="Times,serif" font-size="14.00">ナイブ</text>
<text text-anchor="middle" x="925.03" y="-37.59" font-family="Times,serif" font-size="14.00">名詞,普通名詞,一般,漢</text>
<text text-anchor="middle" x="925.03" y="-22.59" font-family="Times,serif" font-size="14.00">3122</text>
</g>
<!-- node_0_2&#45;&gt;node_0_3 -->
<g id="edge3" class="edge">
<title>node_0_2&#45;&gt;node_0_3</title>
<path fill="none" stroke="black" d="M716.55,-48.79C744.89,-48.79 775.54,-48.79 804.36,-48.79"/>
<polygon fill="black" stroke="black" points="804.48,-52.29 814.48,-48.79 804.48,-45.29 804.48,-52.29"/>
<text text-anchor="middle" x="750.31" y="-52.59" font-family="Times,serif" font-size="14.00">3469</text>
</g>
<!-- node_0_4 -->
<g id="node5" class="node">
<title>node_0_4</title>
<ellipse fill="none" stroke="black" cx="1274.46" cy="-48.79" rx="97.66" ry="48.58"/>
<text text-anchor="middle" x="1274.46" y="-68.09" font-family="Times,serif" font-size="14.00">。</text>
<text text-anchor="middle" x="1274.46" y="-37.09" font-family="Times,serif" font-size="14.00">補助記号,句点,記号</text>
<text text-anchor="middle" x="1274.46" y="-22.09" font-family="Times,serif" font-size="14.00">&#45;3217</text>
</g>
<!-- node_0_3&#45;&gt;node_0_4 -->
<g id="edge4" class="edge">
<title>node_0_3&#45;&gt;node_0_4</title>
<path fill="none" stroke="black" d="M1035.48,-48.79C1077.28,-48.79 1124.87,-48.79 1166.44,-48.79"/>
<polygon fill="black" stroke="black" points="1166.59,-52.29 1176.59,-48.79 1166.59,-45.29 1166.59,-52.29"/>
<text text-anchor="middle" x="1099.74" y="-52.59" font-family="Times,serif" font-size="14.00">2953</text>
</g>
<!-- node_0_5 -->
<g id="node6" class="node">
<title>node_0_5</title>
<ellipse fill="none" stroke="black" cx="1580.75" cy="-48.79" rx="50.82" ry="48.58"/>
<text text-anchor="middle" x="1580.75" y="-68.09" font-family="Times,serif" font-size="14.00">EOS</text>
<text text-anchor="middle" x="1580.75" y="-37.09" font-family="Times,serif" font-size="14.00">BOS/EOS</text>
<text text-anchor="middle" x="1580.75" y="-22.09" font-family="Times,serif" font-size="14.00">0</text>
</g>
<!-- node_0_4&#45;&gt;node_0_5 -->
<g id="edge5" class="edge">
<title>node_0_4&#45;&gt;node_0_5</title>
<path fill="none" stroke="black" d="M1372.15,-48.79C1420.55,-48.79 1477.61,-48.79 1519.65,-48.79"/>
<polygon fill="black" stroke="black" points="1519.73,-52.29 1529.73,-48.79 1519.73,-45.29 1519.73,-52.29"/>
<text text-anchor="middle" x="1449.17" y="-52.59" font-family="Times,serif" font-size="14.00">4737</text>
</g>
<!-- node_1_0 -->
<g id="node7" class="node">
<title>node_1_0</title>
<ellipse fill="none" stroke="black" cx="50.91" cy="-164.79" rx="50.82" ry="48.58"/>
<text text-anchor="middle" x="50.91" y="-184.09" font-family="Times,serif" font-size="14.00">BOS</text>
<text text-anchor="middle" x="50.91" y="-153.09" font-family="Times,serif" font-size="14.00">BOS/EOS</text>
<text text-anchor="middle" x="50.91" y="-138.09" font-family="Times,serif" font-size="14.00">0</text>
</g>
<!-- node_1_1 -->
<g id="node8" class="node">
<title>node_1_1</title>
<ellipse fill="none" stroke="black" cx="298.76" cy="-164.79" rx="132.87" ry="48.17"/>
<text text-anchor="middle" x="298.76" y="-183.59" font-family="Times,serif" font-size="14.00">東京</text>
<text text-anchor="middle" x="298.76" y="-168.59" font-family="Times,serif" font-size="14.00">トーキョー</text>
<text text-anchor="middle" x="298.76" y="-153.59" font-family="Times,serif" font-size="14.00">名詞,固有名詞,地名,一般,固</text>
<text text-anchor="middle" x="298.76" y="-138.59" font-family="Times,serif" font-size="14.00">&#45;783</text>
</g>
<!-- node_1_0&#45;&gt;node_1_1 -->
<g id="edge6" class="edge">
<title>node_1_0&#45;&gt;node_1_1</title>
<path fill="none" stroke="black" d="M101.96,-164.79C117.92,-164.79 136.45,-164.79 155.61,-164.79"/>
<polygon fill="black" stroke="black" points="155.68,-168.29 165.68,-164.79 155.68,-161.29 155.68,-168.29"/>
<text text-anchor="middle" x="133.82" y="-168.59" font-family="Times,serif" font-size="14.00">6610</text>
</g>
<!-- node_1_2 -->
<g id="node9" class="node">
<title>node_1_2</title>
<ellipse fill="none" stroke="black" cx="606" cy="-164.79" rx="110.12" ry="48.17"/>
<text text-anchor="middle" x="606" y="-183.59" font-family="Times,serif" font-size="14.00">都</text>
<text text-anchor="middle" x="606" y="-168.59" font-family="Times,serif" font-size="14.00">ト</text>
<text text-anchor="middle" x="606" y="-153.59" font-family="Times,serif" font-size="14.00">名詞,普通名詞,一般,漢</text>
<text text-anchor="middle" x="606" y="-138.59" font-family="Times,serif" font-size="14.00">1012</text>
</g>
<!-- node_1_1&#45;&gt;node_1_2 -->
<g id="edge7" class="edge">
<title>node_1_1&#45;&gt;node_1_2</title>
<path fill="none" stroke="black" d="M431.87,-164.79C449.65,-164.79 467.81,-164.79 485.35,-164.79"/>
<polygon fill="black" stroke="black" points="485.61,-168.29 495.61,-164.79 485.61,-161.29 485.61,-168.29"/>
<text text-anchor="middle" x="463.7" y="-168.59" font-family="Times,serif" font-size="14.00">1868</text>
</g>
<!-- node_1_3 -->
<g id="node10" class="node">
<title>node_1_3</title>
<ellipse fill="none" stroke="black" cx="925.03" cy="-164.79" rx="132.87" ry="48.17"/>
<text text-anchor="middle" x="925.03" y="-183.59" font-family="Times,serif" font-size="14.00">内部</text>
<text text-anchor="middle" x="925.03" y="-168.59" font-family="Times,serif" font-size="14.00">ウツベ</text>
<text text-anchor="middle" x="925.03" y="-153.59" font-family="Times,serif" font-size="14.00">名詞,固有名詞,地名,一般,固</text>
<text text-anchor="middle" x="925.03" y="-138.59" font-family="Times,serif" font-size="14.00">4275</text>
</g>
<!-- node_1_2&#45;&gt;node_1_3 -->
<g id="edge8" class="edge">
<title>node_1_2&#45;&gt;node_1_3</title>
<path fill="none" stroke="black" d="M716.55,-164.79C737.66,-164.79 760.05,-164.79 782.01,-164.79"/>
<polygon fill="black" stroke="black" points="782.07,-168.29 792.07,-164.79 782.07,-161.29 782.07,-168.29"/>
<text text-anchor="middle" x="750.31" y="-168.59" font-family="Times,serif" font-size="14.00">3764</text>
</g>
<!-- node_1_4 -->
<g id="node11" class="node">
<title>node_1_4</title>
<ellipse fill="none" stroke="black" cx="1274.46" cy="-164.79" rx="97.66" ry="48.58"/>
<text text-anchor="middle" x="1274.46" y="-184.09" font-family="Times,serif" font-size="14.00">。</text>
<text text-anchor="middle" x="1274.46" y="-153.09" font-family="Times,serif" font-size="14.00">補助記号,句点,記号</text>
<text text-anchor="middle" x="1274.46" y="-138.09" font-family="Times,serif" font-size="14.00">&#45;3217</text>
</g>
<!-- node_1_3&#45;&gt;node_1_4 -->
<g id="edge9" class="edge">
<title>node_1_3&#45;&gt;node_1_4</title>
<path fill="none" stroke="black" d="M1058.37,-164.79C1094.23,-164.79 1132.6,-164.79 1166.85,-164.79"/>
<polygon fill="black" stroke="black" points="1166.87,-168.29 1176.87,-164.79 1166.87,-161.29 1166.87,-168.29"/>
<text text-anchor="middle" x="1099.74" y="-168.59" font-family="Times,serif" font-size="14.00">1505</text>
</g>
<!-- node_1_5 -->
<g id="node12" class="node">
<title>node_1_5</title>
<ellipse fill="none" stroke="black" cx="1580.75" cy="-164.79" rx="50.82" ry="48.58"/>
<text text-anchor="middle" x="1580.75" y="-184.09" font-family="Times,serif" font-size="14.00">EOS</text>
<text text-anchor="middle" x="1580.75" y="-153.09" font-family="Times,serif" font-size="14.00">BOS/EOS</text>
<text text-anchor="middle" x="1580.75" y="-138.09" font-family="Times,serif" font-size="14.00">0</text>
</g>
<!-- node_1_4&#45;&gt;node_1_5 -->
<g id="edge10" class="edge">
<title>node_1_4&#45;&gt;node_1_5</title>
<path fill="none" stroke="black" d="M1372.15,-164.79C1420.55,-164.79 1477.61,-164.79 1519.65,-164.79"/>
<polygon fill="black" stroke="black" points="1519.73,-168.29 1529.73,-164.79 1519.73,-161.29 1519.73,-168.29"/>
<text text-anchor="middle" x="1449.17" y="-168.59" font-family="Times,serif" font-size="14.00">4737</text>
</g>
<!-- node_2_0 -->
<g id="node13" class="node">
<title>node_2_0</title>
<ellipse fill="none" stroke="black" cx="50.91" cy="-280.79" rx="50.82" ry="48.58"/>
<text text-anchor="middle" x="50.91" y="-300.09" font-family="Times,serif" font-size="14.00">BOS</text>
<text text-anchor="middle" x="50.91" y="-269.09" font-family="Times,serif" font-size="14.00">BOS/EOS</text>
<text text-anchor="middle" x="50.91" y="-254.09" font-family="Times,serif" font-size="14.00">0</text>
</g>
<!-- node_2_1 -->
<g id="node14" class="node">
<title>node_2_1</title>
<ellipse fill="none" stroke="black" cx="298.76" cy="-280.79" rx="132.87" ry="48.17"/>
<text text-anchor="middle" x="298.76" y="-299.59" font-family="Times,serif" font-size="14.00">東京</text>
<text text-anchor="middle" x="298.76" y="-284.59" font-family="Times,serif" font-size="14.00">トーキョー</text>
<text text-anchor="middle" x="298.76" y="-269.59" font-family="Times,serif" font-size="14.00">名詞,固有名詞,地名,一般,固</text>
<text text-anchor="middle" x="298.76" y="-254.59" font-family="Times,serif" font-size="14.00">&#45;783</text>
</g>
<!-- node_2_0&#45;&gt;node_2_1 -->
<g id="edge11" class="edge">
<title>node_2_0&#45;&gt;node_2_1</title>
<path fill="none" stroke="black" d="M101.96,-280.79C117.92,-280.79 136.45,-280.79 155.61,-280.79"/>
<polygon fill="black" stroke="black" points="155.68,-284.29 165.68,-280.79 155.68,-277.29 155.68,-284.29"/>
<text text-anchor="middle" x="133.82" y="-284.59" font-family="Times,serif" font-size="14.00">6610</text>
</g>
<!-- node_2_2 -->
<g id="node15" class="node">
<title>node_2_2</title>
<ellipse fill="none" stroke="black" cx="606" cy="-280.79" rx="110.12" ry="48.17"/>
<text text-anchor="middle" x="606" y="-299.59" font-family="Times,serif" font-size="14.00">都</text>
<text text-anchor="middle" x="606" y="-284.59" font-family="Times,serif" font-size="14.00">ト</text>
<text text-anchor="middle" x="606" y="-269.59" font-family="Times,serif" font-size="14.00">名詞,普通名詞,一般,漢</text>
<text text-anchor="middle" x="606" y="-254.59" font-family="Times,serif" font-size="14.00">1012</text>
</g>
<!-- node_2_1&#45;&gt;node_2_2 -->
<g id="edge12" class="edge">
<title>node_2_1&#45;&gt;node_2_2</title>
<path fill="none" stroke="black" d="M431.87,-280.79C449.65,-280.79 467.81,-280.79 485.35,-280.79"/>
<polygon fill="black" stroke="black" points="485.61,-284.29 495.61,-280.79 485.61,-277.29 485.61,-284.29"/>
<text text-anchor="middle" x="463.7" y="-284.59" font-family="Times,serif" font-size="14.00">1868</text>
</g>
<!-- node_2_3 -->
<g id="node16" class="node">
<title>node_2_3</title>
<ellipse fill="none" stroke="black" cx="925.03" cy="-280.79" rx="110.12" ry="48.17"/>
<text text-anchor="middle" x="925.03" y="-299.59" font-family="Times,serif" font-size="14.00">内</text>
<text text-anchor="middle" x="925.03" y="-284.59" font-family="Times,serif" font-size="14.00">ナイ</text>
<text text-anchor="middle" x="925.03" y="-269.59" font-family="Times,serif" font-size="14.00">接尾辞,名詞的,一般,漢</text>
<text text-anchor="middle" x="925.03" y="-254.59" font-family="Times,serif" font-size="14.00">4531</text>
</g>
<!-- node_2_2&#45;&gt;node_2_3 -->
<g id="edge13" class="edge">
<title>node_2_2&#45;&gt;node_2_3</title>
<path fill="none" stroke="black" d="M716.55,-280.79C744.89,-280.79 775.54,-280.79 804.36,-280.79"/>
<polygon fill="black" stroke="black" points="804.48,-284.29 814.48,-280.79 804.48,-277.29 804.48,-284.29"/>
<text text-anchor="middle" x="750.31" y="-284.59" font-family="Times,serif" font-size="14.00">&#45;185</text>
</g>
<!-- node_2_4 -->
<g id="node17" class="node">
<title>node_2_4</title>
<ellipse fill="none" stroke="black" cx="1274.46" cy="-280.79" rx="140.93" ry="48.17"/>
<text text-anchor="middle" x="1274.46" y="-299.59" font-family="Times,serif" font-size="14.00">部</text>
<text text-anchor="middle" x="1274.46" y="-284.59" font-family="Times,serif" font-size="14.00">ブ</text>
<text text-anchor="middle" x="1274.46" y="-269.59" font-family="Times,serif" font-size="14.00">名詞,普通名詞,助数詞可能,漢</text>
<text text-anchor="middle" x="1274.46" y="-254.59" font-family="Times,serif" font-size="14.00">3622</text>
</g>
<!-- node_2_3&#45;&gt;node_2_4 -->
<g id="edge14" class="edge">
<title>node_2_3&#45;&gt;node_2_4</title>
<path fill="none" stroke="black" d="M1035.48,-280.79C1063.45,-280.79 1094,-280.79 1123.61,-280.79"/>
<polygon fill="black" stroke="black" points="1123.61,-284.29 1133.61,-280.79 1123.61,-277.29 1123.61,-284.29"/>
<text text-anchor="middle" x="1099.74" y="-284.59" font-family="Times,serif" font-size="14.00">3454</text>
</g>
<!-- node_2_5 -->
<g id="node18" class="node">
<title>node_2_5</title>
<ellipse fill="none" stroke="black" cx="1580.75" cy="-280.79" rx="97.66" ry="48.58"/>
<text text-anchor="middle" x="1580.75" y="-300.09" font-family="Times,serif" font-size="14.00">。</text>
<text text-anchor="middle" x="1580.75" y="-269.09" font-family="Times,serif" font-size="14.00">補助記号,句点,記号</text>
<text text-anchor="middle" x="1580.75" y="-254.09" font-family="Times,serif" font-size="14.00">&#45;3217</text>
</g>
<!-- node_2_4&#45;&gt;node_2_5 -->
<g id="edge15" class="edge">
<title>node_2_4&#45;&gt;node_2_5</title>
<path fill="none" stroke="black" d="M1415.58,-280.79C1434.79,-280.79 1454.27,-280.79 1472.76,-280.79"/>
<polygon fill="black" stroke="black" points="1472.93,-284.29 1482.93,-280.79 1472.93,-277.29 1472.93,-284.29"/>
<text text-anchor="middle" x="1449.17" y="-284.59" font-family="Times,serif" font-size="14.00">&#45;1878</text>
</g>
<!-- node_2_6 -->
<g id="node19" class="node">
<title>node_2_6</title>
<ellipse fill="none" stroke="black" cx="1793.24" cy="-280.79" rx="50.82" ry="48.58"/>
<text text-anchor="middle" x="1793.24" y="-300.09" font-family="Times,serif" font-size="14.00">EOS</text>
<text text-anchor="middle" x="1793.24" y="-269.09" font-family="Times,serif" font-size="14.00">BOS/EOS</text>
<text text-anchor="middle" x="1793.24" y="-254.09" font-family="Times,serif" font-size="14.00">0</text>
</g>
<!-- node_2_5&#45;&gt;node_2_6 -->
<g id="edge16" class="edge">
<title>node_2_5&#45;&gt;node_2_6</title>
<path fill="none" stroke="black" d="M1678.37,-280.79C1696.63,-280.79 1715.24,-280.79 1731.97,-280.79"/>
<polygon fill="black" stroke="black" points="1732.13,-284.29 1742.13,-280.79 1732.13,-277.29 1732.13,-284.29"/>
<text text-anchor="middle" x="1710.33" y="-284.59" font-family="Times,serif" font-size="14.00">4737</text>
</g>
<!-- node_3_0 -->
<g id="node20" class="node">
<title>node_3_0</title>
<ellipse fill="none" stroke="black" cx="50.91" cy="-396.79" rx="50.82" ry="48.58"/>
<text text-anchor="middle" x="50.91" y="-416.09" font-family="Times,serif" font-size="14.00">BOS</text>
<text text-anchor="middle" x="50.91" y="-385.09" font-family="Times,serif" font-size="14.00">BOS/EOS</text>
<text text-anchor="middle" x="50.91" y="-370.09" font-family="Times,serif" font-size="14.00">0</text>
</g>
<!-- node_3_1 -->
<g id="node21" class="node">
<title>node_3_1</title>
<ellipse fill="none" stroke="black" cx="298.76" cy="-396.79" rx="132.87" ry="48.17"/>
<text text-anchor="middle" x="298.76" y="-415.59" font-family="Times,serif" font-size="14.00">東京</text>
<text text-anchor="middle" x="298.76" y="-400.59" font-family="Times,serif" font-size="14.00">トーキョー</text>
<text text-anchor="middle" x="298.76" y="-385.59" font-family="Times,serif" font-size="14.00">名詞,固有名詞,地名,一般,固</text>
<text text-anchor="middle" x="298.76" y="-370.59" font-family="Times,serif" font-size="14.00">&#45;783</text>
</g>
<!-- node_3_0&#45;&gt;node_3_1 -->
<g id="edge17" class="edge">
<title>node_3_0&#45;&gt;node_3_1</title>
<path fill="none" stroke="black" d="M101.96,-396.79C117.92,-396.79 136.45,-396.79 155.61,-396.79"/>
<polygon fill="black" stroke="black" points="155.68,-400.29 165.68,-396.79 155.68,-393.29 155.68,-400.29"/>
<text text-anchor="middle" x="133.82" y="-400.59" font-family="Times,serif" font-size="14.00">6610</text>
</g>
<!-- node_3_2 -->
<g id="node22" class="node">
<title>node_3_2</title>
<ellipse fill="none" stroke="black" cx="606" cy="-396.79" rx="110.12" ry="48.17"/>
<text text-anchor="middle" x="606" y="-415.59" font-family="Times,serif" font-size="14.00">都内</text>
<text text-anchor="middle" x="606" y="-400.59" font-family="Times,serif" font-size="14.00">トナイ</text>
<text text-anchor="middle" x="606" y="-385.59" font-family="Times,serif" font-size="14.00">名詞,普通名詞,一般,漢</text>
<text text-anchor="middle" x="606" y="-370.59" font-family="Times,serif" font-size="14.00">3295</text>
</g>
<!-- node_3_1&#45;&gt;node_3_2 -->
<g id="edge18" class="edge">
<title>node_3_1&#45;&gt;node_3_2</title>
<path fill="none" stroke="black" d="M431.87,-396.79C449.65,-396.79 467.81,-396.79 485.35,-396.79"/>
<polygon fill="black" stroke="black" points="485.61,-400.29 495.61,-396.79 485.61,-393.29 485.61,-400.29"/>
<text text-anchor="middle" x="463.7" y="-400.59" font-family="Times,serif" font-size="14.00">4279</text>
</g>
<!-- node_3_3 -->
<g id="node23" class="node">
<title>node_3_3</title>
<ellipse fill="none" stroke="black" cx="925.03" cy="-396.79" rx="140.93" ry="48.17"/>
<text text-anchor="middle" x="925.03" y="-415.59" font-family="Times,serif" font-size="14.00">部</text>
<text text-anchor="middle" x="925.03" y="-400.59" font-family="Times,serif" font-size="14.00">ブ</text>
<text text-anchor="middle" x="925.03" y="-385.59" font-family="Times,serif" font-size="14.00">名詞,普通名詞,助数詞可能,漢</text>
<text text-anchor="middle" x="925.03" y="-370.59" font-family="Times,serif" font-size="14.00">3622</text>
</g>
<!-- node_3_2&#45;&gt;node_3_3 -->
<g id="edge19" class="edge">
<title>node_3_2&#45;&gt;node_3_3</title>
<path fill="none" stroke="black" d="M716.55,-396.79C735.14,-396.79 754.73,-396.79 774.15,-396.79"/>
<polygon fill="black" stroke="black" points="774.28,-400.29 784.28,-396.79 774.28,-393.29 774.28,-400.29"/>
<text text-anchor="middle" x="750.31" y="-400.59" font-family="Times,serif" font-size="14.00">3106</text>
</g>
<!-- node_3_4 -->
<g id="node24" class="node">
<title>node_3_4</title>
<ellipse fill="none" stroke="black" cx="1274.46" cy="-396.79" rx="97.66" ry="48.58"/>
<text text-anchor="middle" x="1274.46" y="-416.09" font-family="Times,serif" font-size="14.00">。</text>
<text text-anchor="middle" x="1274.46" y="-385.09" font-family="Times,serif" font-size="14.00">補助記号,句点,記号</text>
<text text-anchor="middle" x="1274.46" y="-370.09" font-family="Times,serif" font-size="14.00">&#45;3217</text>
</g>
<!-- node_3_3&#45;&gt;node_3_4 -->
<g id="edge20" class="edge">
<title>node_3_3&#45;&gt;node_3_4</title>
<path fill="none" stroke="black" d="M1065.84,-396.79C1099.44,-396.79 1134.81,-396.79 1166.63,-396.79"/>
<polygon fill="black" stroke="black" points="1166.84,-400.29 1176.84,-396.79 1166.84,-393.29 1166.84,-400.29"/>
<text text-anchor="middle" x="1099.74" y="-400.59" font-family="Times,serif" font-size="14.00">&#45;1878</text>
</g>
<!-- node_3_5 -->
<g id="node25" class="node">
<title>node_3_5</title>
<ellipse fill="none" stroke="black" cx="1580.75" cy="-396.79" rx="50.82" ry="48.58"/>
<text text-anchor="middle" x="1580.75" y="-416.09" font-family="Times,serif" font-size="14.00">EOS</text>
<text text-anchor="middle" x="1580.75" y="-385.09" font-family="Times,serif" font-size="14.00">BOS/EOS</text>
<text text-anchor="middle" x="1580.75" y="-370.09" font-family="Times,serif" font-size="14.00">0</text>
</g>
<!-- node_3_4&#45;&gt;node_3_5 -->
<g id="edge21" class="edge">
<title>node_3_4&#45;&gt;node_3_5</title>
<path fill="none" stroke="black" d="M1372.15,-396.79C1420.55,-396.79 1477.61,-396.79 1519.65,-396.79"/>
<polygon fill="black" stroke="black" points="1519.73,-400.29 1529.73,-396.79 1519.73,-393.29 1519.73,-400.29"/>
<text text-anchor="middle" x="1449.17" y="-400.59" font-family="Times,serif" font-size="14.00">4737</text>
</g>
<!-- node_4_0 -->
<g id="node26" class="node">
<title>node_4_0</title>
<ellipse fill="none" stroke="black" cx="50.91" cy="-512.79" rx="50.82" ry="48.58"/>
<text text-anchor="middle" x="50.91" y="-532.09" font-family="Times,serif" font-size="14.00">BOS</text>
<text text-anchor="middle" x="50.91" y="-501.09" font-family="Times,serif" font-size="14.00">BOS/EOS</text>
<text text-anchor="middle" x="50.91" y="-486.09" font-family="Times,serif" font-size="14.00">0</text>
</g>
<!-- node_4_1 -->
<g id="node27" class="node">
<title>node_4_1</title>
<ellipse fill="none" stroke="black" cx="298.76" cy="-512.79" rx="132.87" ry="48.17"/>
<text text-anchor="middle" x="298.76" y="-531.59" font-family="Times,serif" font-size="14.00">東京</text>
<text text-anchor="middle" x="298.76" y="-516.59" font-family="Times,serif" font-size="14.00">トーキョー</text>
<text text-anchor="middle" x="298.76" y="-501.59" font-family="Times,serif" font-size="14.00">名詞,固有名詞,地名,一般,固</text>
<text text-anchor="middle" x="298.76" y="-486.59" font-family="Times,serif" font-size="14.00">&#45;783</text>
</g>
<!-- node_4_0&#45;&gt;node_4_1 -->
<g id="edge22" class="edge">
<title>node_4_0&#45;&gt;node_4_1</title>
<path fill="none" stroke="black" d="M101.96,-512.79C117.92,-512.79 136.45,-512.79 155.61,-512.79"/>
<polygon fill="black" stroke="black" points="155.68,-516.29 165.68,-512.79 155.68,-509.29 155.68,-516.29"/>
<text text-anchor="middle" x="133.82" y="-516.59" font-family="Times,serif" font-size="14.00">6610</text>
</g>
<!-- node_4_2 -->
<g id="node28" class="node">
<title>node_4_2</title>
<ellipse fill="none" stroke="black" cx="606" cy="-512.79" rx="110.12" ry="48.17"/>
<text text-anchor="middle" x="606" y="-531.59" font-family="Times,serif" font-size="14.00">都</text>
<text text-anchor="middle" x="606" y="-516.59" font-family="Times,serif" font-size="14.00">ミヤコ</text>
<text text-anchor="middle" x="606" y="-501.59" font-family="Times,serif" font-size="14.00">名詞,普通名詞,一般,和</text>
<text text-anchor="middle" x="606" y="-486.59" font-family="Times,serif" font-size="14.00">2897</text>
</g>
<!-- node_4_1&#45;&gt;node_4_2 -->
<g id="edge23" class="edge">
<title>node_4_1&#45;&gt;node_4_2</title>
<path fill="none" stroke="black" d="M431.87,-512.79C449.65,-512.79 467.81,-512.79 485.35,-512.79"/>
<polygon fill="black" stroke="black" points="485.61,-516.29 495.61,-512.79 485.61,-509.29 485.61,-516.29"/>
<text text-anchor="middle" x="463.7" y="-516.59" font-family="Times,serif" font-size="14.00">4836</text>
</g>
<!-- node_4_3 -->
<g id="node29" class="node">
<title>node_4_3</title>
<ellipse fill="none" stroke="black" cx="925.03" cy="-512.79" rx="110.12" ry="48.17"/>
<text text-anchor="middle" x="925.03" y="-531.59" font-family="Times,serif" font-size="14.00">内部</text>
<text text-anchor="middle" x="925.03" y="-516.59" font-family="Times,serif" font-size="14.00">ナイブ</text>
<text text-anchor="middle" x="925.03" y="-501.59" font-family="Times,serif" font-size="14.00">名詞,普通名詞,一般,漢</text>
<text text-anchor="middle" x="925.03" y="-486.59" font-family="Times,serif" font-size="14.00">3122</text>
</g>
<!-- node_4_2&#45;&gt;node_4_3 -->
<g id="edge24" class="edge">
<title>node_4_2&#45;&gt;node_4_3</title>
<path fill="none" stroke="black" d="M716.55,-512.79C744.89,-512.79 775.54,-512.79 804.36,-512.79"/>
<polygon fill="black" stroke="black" points="804.48,-516.29 814.48,-512.79 804.48,-509.29 804.48,-516.29"/>
<text text-anchor="middle" x="750.31" y="-516.59" font-family="Times,serif" font-size="14.00">&#45;1384</text>
</g>
<!-- node_4_4 -->
<g id="node30" class="node">
<title>node_4_4</title>
<ellipse fill="none" stroke="black" cx="1274.46" cy="-512.79" rx="97.66" ry="48.58"/>
<text text-anchor="middle" x="1274.46" y="-532.09" font-family="Times,serif" font-size="14.00">。</text>
<text text-anchor="middle" x="1274.46" y="-501.09" font-family="Times,serif" font-size="14.00">補助記号,句点,記号</text>
<text text-anchor="middle" x="1274.46" y="-486.09" font-family="Times,serif" font-size="14.00">&#45;3217</text>
</g>
<!-- node_4_3&#45;&gt;node_4_4 -->
<g id="edge25" class="edge">
<title>node_4_3&#45;&gt;node_4_4</title>
<path fill="none" stroke="black" d="M1035.48,-512.79C1077.28,-512.79 1124.87,-512.79 1166.44,-512.79"/>
<polygon fill="black" stroke="black" points="1166.59,-516.29 1176.59,-512.79 1166.59,-509.29 1166.59,-516.29"/>
<text text-anchor="middle" x="1099.74" y="-516.59" font-family="Times,serif" font-size="14.00">2953</text>
</g>
<!-- node_4_5 -->
<g id="node31" class="node">
<title>node_4_5</title>
<ellipse fill="none" stroke="black" cx="1580.75" cy="-512.79" rx="50.82" ry="48.58"/>
<text text-anchor="middle" x="1580.75" y="-532.09" font-family="Times,serif" font-size="14.00">EOS</text>
<text text-anchor="middle" x="1580.75" y="-501.09" font-family="Times,serif" font-size="14.00">BOS/EOS</text>
<text text-anchor="middle" x="1580.75" y="-486.09" font-family="Times,serif" font-size="14.00">0</text>
</g>
<!-- node_4_4&#45;&gt;node_4_5 -->
<g id="edge26" class="edge">
<title>node_4_4&#45;&gt;node_4_5</title>
<path fill="none" stroke="black" d="M1372.15,-512.79C1420.55,-512.79 1477.61,-512.79 1519.65,-512.79"/>
<polygon fill="black" stroke="black" points="1519.73,-516.29 1529.73,-512.79 1519.73,-509.29 1519.73,-516.29"/>
<text text-anchor="middle" x="1449.17" y="-516.59" font-family="Times,serif" font-size="14.00">4737</text>
</g>
</g>
</svg>
